<svg width="23" height="24" viewBox="0 0 23 24" fill="none" xmlns="http://www.w3.org/2000/svg">
<mask id="path-1-inside-1_261_779" fill="white">
<path d="M22.4382 10.1618L12.8548 0.561903C12.4954 0.20211 12.0081 0 11.5 0C10.9919 0 10.5046 0.20211 10.1452 0.561903L0.561834 10.1618C0.382991 10.3396 0.241222 10.5513 0.144772 10.7845C0.0483222 11.0177 -0.000884848 11.2677 1.20432e-05 11.5202V23.04C1.20432e-05 23.2946 0.100979 23.5388 0.280701 23.7188C0.460423 23.8989 0.704179 24 0.958344 24H8.625C8.87917 24 9.12292 23.8989 9.30265 23.7188C9.48237 23.5388 9.58334 23.2946 9.58334 23.04V16.3201H13.4167V23.04C13.4167 23.2946 13.5176 23.5388 13.6974 23.7188C13.8771 23.8989 14.1208 24 14.375 24H22.0417C22.2958 24 22.5396 23.8989 22.7193 23.7188C22.899 23.5388 23 23.2946 23 23.04V11.5202C23.0009 11.2677 22.9517 11.0177 22.8552 10.7845C22.7588 10.5513 22.617 10.3396 22.4382 10.1618ZM21.0833 22.08H15.3333V15.3601C15.3333 15.1055 15.2324 14.8613 15.0526 14.6813C14.8729 14.5013 14.6292 14.4001 14.375 14.4001H8.625C8.37084 14.4001 8.12708 14.5013 7.94736 14.6813C7.76764 14.8613 7.66667 15.1055 7.66667 15.3601V22.08H1.91668V11.5202L11.5 1.92029L21.0833 11.5202V22.08Z"/>
</mask>
<path d="M22.4382 10.1618L12.8548 0.561903C12.4954 0.20211 12.0081 0 11.5 0C10.9919 0 10.5046 0.20211 10.1452 0.561903L0.561834 10.1618C0.382991 10.3396 0.241222 10.5513 0.144772 10.7845C0.0483222 11.0177 -0.000884848 11.2677 1.20432e-05 11.5202V23.04C1.20432e-05 23.2946 0.100979 23.5388 0.280701 23.7188C0.460423 23.8989 0.704179 24 0.958344 24H8.625C8.87917 24 9.12292 23.8989 9.30265 23.7188C9.48237 23.5388 9.58334 23.2946 9.58334 23.04V16.3201H13.4167V23.04C13.4167 23.2946 13.5176 23.5388 13.6974 23.7188C13.8771 23.8989 14.1208 24 14.375 24H22.0417C22.2958 24 22.5396 23.8989 22.7193 23.7188C22.899 23.5388 23 23.2946 23 23.04V11.5202C23.0009 11.2677 22.9517 11.0177 22.8552 10.7845C22.7588 10.5513 22.617 10.3396 22.4382 10.1618ZM21.0833 22.08H15.3333V15.3601C15.3333 15.1055 15.2324 14.8613 15.0526 14.6813C14.8729 14.5013 14.6292 14.4001 14.375 14.4001H8.625C8.37084 14.4001 8.12708 14.5013 7.94736 14.6813C7.76764 14.8613 7.66667 15.1055 7.66667 15.3601V22.08H1.91668V11.5202L11.5 1.92029L21.0833 11.5202V22.08Z" fill="#00AFB4"/>
<path d="M22.4382 10.1618L17.4841 15.1073L17.4934 15.1165L17.5026 15.1257L22.4382 10.1618ZM12.8548 0.561903L17.8089 -4.38357L17.8072 -4.38519L12.8548 0.561903ZM11.5 0V7V0ZM10.1452 0.561903L5.19276 -4.3852L5.19114 -4.38357L10.1452 0.561903ZM0.561834 10.1618L5.49739 15.1257L5.50664 15.1165L5.51585 15.1073L0.561834 10.1618ZM1.20432e-05 11.5202H7.00001V11.5077L6.99997 11.4953L1.20432e-05 11.5202ZM9.58334 16.3201V9.3201H2.58334V16.3201H9.58334ZM13.4167 16.3201H20.4167V9.3201H13.4167V16.3201ZM23 11.5202L16 11.4953L16 11.5077V11.5202H23ZM21.0833 22.08V29.08H28.0833V22.08H21.0833ZM15.3333 22.08H8.33333V29.08H15.3333V22.08ZM7.94736 14.6813L12.9014 19.6268L7.94736 14.6813ZM7.66667 22.08V29.08H14.6667V22.08H7.66667ZM1.91668 22.08H-5.08332V29.08H1.91668V22.08ZM1.91668 11.5202L-3.03734 6.57469L-5.08332 8.6242V11.5202H1.91668ZM11.5 1.92029L16.454 -3.02519L11.5 -7.98776L6.54598 -3.02519L11.5 1.92029ZM21.0833 11.5202H28.0833V8.6242L26.0373 6.57469L21.0833 11.5202ZM22.4382 10.1618L27.3922 5.2163L17.8089 -4.38357L12.8548 0.561903L7.90083 5.50738L17.4841 15.1073L22.4382 10.1618ZM12.8548 0.561903L17.8072 -4.38519C16.1361 -6.05808 13.8677 -7 11.5 -7V0V7C10.1485 7 8.85473 6.4623 7.90245 5.509L12.8548 0.561903ZM11.5 0V-7C9.13227 -7 6.86386 -6.05808 5.19276 -4.38519L10.1452 0.561903L15.0976 5.509C14.1453 6.4623 12.8515 7 11.5 7V0ZM10.1452 0.561903L5.19114 -4.38357L-4.39218 5.2163L0.561834 10.1618L5.51585 15.1073L15.0992 5.50738L10.1452 0.561903ZM0.561834 10.1618L-4.37372 5.19788C-5.21052 6.0299 -5.87318 7.01959 -6.32379 8.10909L0.144772 10.7845L6.61334 13.4598C6.35563 14.0829 5.9765 14.6493 5.49739 15.1257L0.561834 10.1618ZM0.144772 10.7845L-6.32379 8.10909C-6.7744 9.19856 -7.00413 10.3665 -6.99994 11.545L1.20432e-05 11.5202L6.99997 11.4953C7.00236 12.169 6.87104 12.8368 6.61334 13.4598L0.144772 10.7845ZM1.20432e-05 11.5202H-6.99999V23.04H1.20432e-05H7.00001V11.5202H1.20432e-05ZM1.20432e-05 23.04H-6.99999C-6.99999 25.1472 -6.16445 27.1706 -4.67332 28.6643L0.280701 23.7188L5.23472 18.7734C6.36641 19.907 7.00001 21.442 7.00001 23.04H1.20432e-05ZM0.280701 23.7188L-4.67332 28.6643C-3.18176 30.1584 -1.15623 31 0.958344 31V24V17C2.56458 17 4.10261 17.6393 5.23472 18.7734L0.280701 23.7188ZM0.958344 24V31H8.625V24V17H0.958344V24ZM8.625 24V31C10.7396 31 12.7651 30.1584 14.2567 28.6643L9.30265 23.7188L4.34863 18.7734C5.48074 17.6393 7.01876 17 8.625 17V24ZM9.30265 23.7188L14.2567 28.6643C15.7478 27.1706 16.5833 25.1472 16.5833 23.04H9.58334H2.58334C2.58334 21.442 3.21694 19.907 4.34863 18.7734L9.30265 23.7188ZM9.58334 23.04H16.5833V16.3201H9.58334H2.58334V23.04H9.58334ZM9.58334 16.3201V23.3201H13.4167V16.3201V9.3201H9.58334V16.3201ZM13.4167 16.3201H6.41667V23.04H13.4167H20.4167V16.3201H13.4167ZM13.4167 23.04H6.41667C6.41667 25.1472 7.25219 27.1706 8.74334 28.6643L13.6974 23.7188L18.6514 18.7734C19.7831 19.907 20.4167 21.442 20.4167 23.04H13.4167ZM13.6974 23.7188L8.74334 28.6643C10.2349 30.1584 12.2604 31 14.375 31V24V17C15.9812 17 17.5193 17.6393 18.6514 18.7734L13.6974 23.7188ZM14.375 24V31H22.0417V24V17H14.375V24ZM22.0417 24V31C24.1562 31 26.1818 30.1584 27.6733 28.6643L22.7193 23.7188L17.7653 18.7734C18.8974 17.6393 20.4354 17 22.0417 17V24ZM22.7193 23.7188L27.6733 28.6643C29.1645 27.1706 30 25.1472 30 23.04H23H16C16 21.442 16.6336 19.907 17.7653 18.7734L22.7193 23.7188ZM23 23.04H30V11.5202H23H16V23.04H23ZM23 11.5202L29.9999 11.545C30.0041 10.3665 29.7744 9.19856 29.3238 8.10909L22.8552 10.7845L16.3867 13.4598C16.129 12.8368 15.9976 12.169 16 11.4953L23 11.5202ZM22.8552 10.7845L29.3238 8.10909C28.8732 7.01958 28.2105 6.02989 27.3737 5.19788L22.4382 10.1618L17.5026 15.1257C17.0235 14.6493 16.6444 14.0829 16.3867 13.4598L22.8552 10.7845ZM21.0833 22.08V15.08H15.3333V22.08V29.08H21.0833V22.08ZM15.3333 22.08H22.3333V15.3601H15.3333H8.33333V22.08H15.3333ZM15.3333 15.3601H22.3333C22.3333 13.2529 21.4978 11.2295 20.0067 9.73582L15.0526 14.6813L10.0986 19.6268C8.96694 18.4931 8.33333 16.9581 8.33333 15.3601H15.3333ZM15.0526 14.6813L20.0067 9.73582C18.5151 8.24169 16.4896 7.40013 14.375 7.40013V14.4001V21.4001C12.7688 21.4001 11.2307 20.7608 10.0986 19.6268L15.0526 14.6813ZM14.375 14.4001V7.40013H8.625V14.4001V21.4001H14.375V14.4001ZM8.625 14.4001V7.40013C6.51043 7.40013 4.4849 8.24169 2.99334 9.73582L7.94736 14.6813L12.9014 19.6268C11.7693 20.7608 10.2312 21.4001 8.625 21.4001V14.4001ZM7.94736 14.6813L2.99334 9.73582C1.50221 11.2295 0.666671 13.2529 0.666671 15.3601H7.66667H14.6667C14.6667 16.9581 14.0331 18.4931 12.9014 19.6268L7.94736 14.6813ZM7.66667 15.3601H0.666671V22.08H7.66667H14.6667V15.3601H7.66667ZM7.66667 22.08V15.08H1.91668V22.08V29.08H7.66667V22.08ZM1.91668 22.08H8.91668V11.5202H1.91668H-5.08332V22.08H1.91668ZM1.91668 11.5202L6.87069 16.4656L16.454 6.86576L11.5 1.92029L6.54598 -3.02519L-3.03734 6.57469L1.91668 11.5202ZM11.5 1.92029L6.54598 6.86576L16.1293 16.4656L21.0833 11.5202L26.0373 6.57469L16.454 -3.02519L11.5 1.92029ZM21.0833 11.5202H14.0833V22.08H21.0833H28.0833V11.5202H21.0833Z" fill="#00AFB4" mask="url(#path-1-inside-1_261_779)"/>
</svg>
